# xmcd CD database file
#
# Track frame offsets:
#	150
#	14976
#	24429
#	39324
#	53965
#	59565
#	75800
#	92527
#	102487
#	115186
#	121056
#	132120
#	145700
#	155074
#	169234
#	179364
#
# Disc length: 2489 seconds
#
# Revision: 0
# Processed by: cddbd v1.5.2PL0 Copyright (c) Steve Scherf et al.
# Submitted via: CDex 1.70beta2
#
DISCID=d009b710
DTITLE=Teatriukas - Lietuviškos lopsines
DYEAR=2008
DGENRE=Country
TTITLE0=Pelel, pelel, nešk miegeli
TTITLE1=Sūnutis mana, liūlia
TTITLE2=Žalio vario lopšelėlis
TTITLE3=Čiūčia liūlia aukso žiedų...
TTITLE4=A-a apapa, zuikis vaiką lingava
TTITLE5=Liūli liūli mažų
TTITLE6=Ūcia lylia
TTITLE7=Užmik, užmik, birbute...
TTITLE8=A-a-a-a mažoji
TTITLE9=Nevaikyk vėjelio, nebudzink vaikelio
TTITLE10=Lyli lyli rūtelis
TTITLE11=Šarkos varnos pušyje, ma dukryte lopšyje
TTITLE12=Lylia lylia mažute
TTITLE13=Čiūčia liūlia, dukrytėla, mano mylimoji
TTITLE14=Zo zo rikiška
TTITLE15=A-a-a pupų
EXTD=YEAR: 2008
EXTT0=
EXTT1=
EXTT2=
EXTT3=
EXTT4=
EXTT5=
EXTT6=
EXTT7=
EXTT8=
EXTT9=
EXTT10=
EXTT11=
EXTT12=
EXTT13=
EXTT14=
EXTT15=
PLAYORDER=
